<?xml version="1.0" encoding="UTF-8" standalone="no"?>
<!DOCTYPE svg PUBLIC "-//W3C//DTD SVG 1.1//EN"
 "http://www.w3.org/Graphics/SVG/1.1/DTD/svg11.dtd">
<!-- Generated by graphviz version 2.44.1 (20200629.0846)
 -->
<!-- Title: g Pages: 1 -->
<svg width="2189pt" height="2542pt"
 viewBox="0.00 0.00 2188.88 2541.60" xmlns="http://www.w3.org/2000/svg" xmlns:xlink="http://www.w3.org/1999/xlink">
<g id="graph0" class="graph" transform="scale(1 1) rotate(0) translate(4 2537.6)">
<title>g</title>
<polygon fill="white" stroke="transparent" points="-4,4 -4,-2537.6 2184.88,-2537.6 2184.88,4 -4,4"/>
<g id="clust1" class="cluster">
<title>cluster_1629516599</title>
<polygon fill="#ececec" stroke="black" points="950,-191.6 950,-960.4 1206,-960.4 1206,-191.6 950,-191.6"/>
<text text-anchor="middle" x="985.99" y="-943.8" font-family="Times New Roman,serif" font-size="14.00">DataStore</text>
</g>
<g id="clust2" class="cluster">
<title>cluster_105552847</title>
<polygon fill="#d8d8d8" stroke="black" points="958,-199.6 958,-638 1198,-638 1198,-199.6 958,-199.6"/>
<text text-anchor="middle" x="993.6" y="-621.4" font-family="Times New Roman,serif" font-size="14.00">WordInfo</text>
</g>
<g id="clust3" class="cluster">
<title>cluster_2063089</title>
<polygon fill="#ececec" stroke="black" points="1214,-8 1214,-746 1868,-746 1868,-8 1214,-8"/>
<text text-anchor="middle" x="1235.61" y="-729.4" font-family="Times New Roman,serif" font-size="14.00">Base</text>
</g>
<g id="clust4" class="cluster">
<title>cluster_66049</title>
<polygon fill="#ececec" stroke="black" points="8,-809.6 8,-2525.6 942,-2525.6 942,-809.6 8,-809.6"/>
<text text-anchor="middle" x="28.05" y="-2509" font-family="Times New Roman,serif" font-size="14.00">App</text>
</g>
<!-- WordInfo1465777034 -->
<g id="node1" class="node">
<title>WordInfo1465777034</title>
<polygon fill="#ffffff" stroke="transparent" points="1172,-927.6 962,-927.6 962,-805.6 1172,-805.6 1172,-927.6"/>
<text text-anchor="start" x="967" y="-910" font-family="Times New Roman,serif" font-size="14.00">(C)WordInfo</text>
<text text-anchor="start" x="966.7" y="-886" font-family="Times New Roman,serif" font-size="14.00">+ &#160;&#160;meanings: List&lt;Meaning&gt; [0..*]</text>
<text text-anchor="start" x="967" y="-862" font-family="Times New Roman,serif" font-size="14.00">+ &#160;&#160;word: String [0..1]</text>
<text text-anchor="start" x="967" y="-838" font-family="Times New Roman,serif" font-size="14.00">+ defaultWordInfo(): WordInfo</text>
<text text-anchor="start" x="967" y="-814" font-family="Times New Roman,serif" font-size="14.00">+ playAudio()</text>
<polygon fill="black" stroke="black" points="962,-902.6 962,-902.6 1172,-902.6 1172,-902.6 962,-902.6"/>
<polygon fill="black" stroke="black" points="962,-854.6 962,-854.6 1172,-854.6 1172,-854.6 962,-854.6"/>
<polygon fill="none" stroke="black" points="962,-805.6 962,-927.6 1172,-927.6 1172,-805.6 962,-805.6"/>
</g>
<!-- Meaning57294628 -->
<g id="node3" class="node">
<title>Meaning57294628</title>
<polygon fill="#ffffff" stroke="transparent" points="1190,-605.2 966,-605.2 966,-531.2 1190,-531.2 1190,-605.2"/>
<text text-anchor="start" x="971" y="-587.6" font-family="Times New Roman,serif" font-size="14.00">(C)Meaning</text>
<text text-anchor="start" x="970.7" y="-563.6" font-family="Times New Roman,serif" font-size="14.00">+ &#160;&#160;definitions: List&lt;Definition&gt; [0..*]</text>
<text text-anchor="start" x="971" y="-539.6" font-family="Times New Roman,serif" font-size="14.00">+ &#160;&#160;partOfSpeech: String [0..1]</text>
<polygon fill="black" stroke="black" points="966,-580.2 966,-580.2 1190,-580.2 1190,-580.2 966,-580.2"/>
<polygon fill="none" stroke="black" points="966,-531.2 966,-605.2 1190,-605.2 1190,-531.2 966,-531.2"/>
</g>
<!-- WordInfo1465777034&#45;&gt;Meaning57294628 -->
<g id="edge20" class="edge">
<title>WordInfo1465777034&#45;&gt;Meaning57294628</title>
<path fill="none" stroke="black" d="M1069.24,-805.26C1071.33,-749.05 1074.39,-666.43 1076.29,-615.32"/>
<polygon fill="black" stroke="black" points="1079.79,-615.35 1076.66,-605.23 1072.79,-615.09 1079.79,-615.35"/>
<text text-anchor="middle" x="1097.83" y="-775" font-family="Times New Roman,serif" font-size="14.00">meanings</text>
<text text-anchor="middle" x="1097.83" y="-758.2" font-family="Times New Roman,serif" font-size="14.00">[0..*]</text>
</g>
<!-- DictionaryManagement2063089 -->
<g id="node6" class="node">
<title>DictionaryManagement2063089</title>
<polygon fill="#ffffff" stroke="transparent" points="1613.5,-713.2 1222.5,-713.2 1222.5,-423.2 1613.5,-423.2 1613.5,-713.2"/>
<text text-anchor="start" x="1228" y="-695.6" font-family="Times New Roman,serif" font-size="14.00">(C)DictionaryManagement</text>
<text text-anchor="start" x="1228" y="-671.6" font-family="Times New Roman,serif" font-size="14.00">&#45; &#160;&#160;dictionary: Dictionary [0..1]</text>
<text text-anchor="start" x="1228" y="-647.6" font-family="Times New Roman,serif" font-size="14.00">+ addWord(word: Word)</text>
<text text-anchor="start" x="1227.83" y="-623.6" font-family="Times New Roman,serif" font-size="14.00">+ binarySearchFirstEqual(res: ArrayList&lt;Word&gt;, target: String): int</text>
<text text-anchor="start" x="1228" y="-599.6" font-family="Times New Roman,serif" font-size="14.00">+ dictionaryLookup(word_target: String): Word</text>
<text text-anchor="start" x="1228" y="-575.6" font-family="Times New Roman,serif" font-size="14.00">+ dictionarySearcher(target: String): ArrayList&lt;Word&gt;</text>
<text text-anchor="start" x="1228" y="-551.6" font-family="Times New Roman,serif" font-size="14.00">+ getPhonetics(word: String): String</text>
<text text-anchor="start" x="1228" y="-527.6" font-family="Times New Roman,serif" font-size="14.00">+ insertFromCommandline()</text>
<text text-anchor="start" x="1228" y="-503.6" font-family="Times New Roman,serif" font-size="14.00">+ insertFromDatabase()</text>
<text text-anchor="start" x="1228" y="-479.6" font-family="Times New Roman,serif" font-size="14.00">&#45; parse(responseBody: String): String</text>
<text text-anchor="start" x="1228" y="-455.6" font-family="Times New Roman,serif" font-size="14.00">+ removeWord(word_target: String)</text>
<text text-anchor="start" x="1228" y="-431.6" font-family="Times New Roman,serif" font-size="14.00">+ updateWord(word_target: String, new_word_explain: String)</text>
<polygon fill="black" stroke="black" points="1223,-688.2 1223,-688.2 1614,-688.2 1614,-688.2 1223,-688.2"/>
<polygon fill="black" stroke="black" points="1223,-664.2 1223,-664.2 1614,-664.2 1614,-664.2 1223,-664.2"/>
<polygon fill="none" stroke="black" points="1222.5,-423.2 1222.5,-713.2 1613.5,-713.2 1613.5,-423.2 1222.5,-423.2"/>
</g>
<!-- WordInfo1465777034&#45;&gt;DictionaryManagement2063089 -->
<g id="edge19" class="edge">
<title>WordInfo1465777034&#45;&gt;DictionaryManagement2063089</title>
<path fill="none" stroke="black" d="M1138.45,-805.26C1168.02,-780.29 1203.75,-750.12 1239.65,-719.81"/>
<polygon fill="black" stroke="black" points="1241.92,-722.47 1247.31,-713.34 1237.41,-717.12 1241.92,-722.47"/>
<text text-anchor="middle" x="1275.42" y="-766.6" font-family="Times New Roman,serif" font-size="14.00">playAudio() &#45;&gt; getPhonetics()</text>
</g>
<!-- Definition1690370357 -->
<g id="node2" class="node">
<title>Definition1690370357</title>
<polygon fill="#ffffff" stroke="transparent" points="1177,-329.6 979,-329.6 979,-207.6 1177,-207.6 1177,-329.6"/>
<text text-anchor="start" x="984" y="-312" font-family="Times New Roman,serif" font-size="14.00">(C)Definition</text>
<text text-anchor="start" x="984" y="-288" font-family="Times New Roman,serif" font-size="14.00">+ &#160;&#160;asyonyms: List&lt;String&gt; [0..*]</text>
<text text-anchor="start" x="984" y="-264" font-family="Times New Roman,serif" font-size="14.00">+ &#160;&#160;definition: String [0..1]</text>
<text text-anchor="start" x="984" y="-240" font-family="Times New Roman,serif" font-size="14.00">+ &#160;&#160;example: String [0..1]</text>
<text text-anchor="start" x="983.91" y="-216" font-family="Times New Roman,serif" font-size="14.00">+ &#160;&#160;synonyms: List&lt;String&gt; [0..*]</text>
<polygon fill="black" stroke="black" points="979,-304.6 979,-304.6 1177,-304.6 1177,-304.6 979,-304.6"/>
<polygon fill="none" stroke="black" points="979,-207.6 979,-329.6 1177,-329.6 1177,-207.6 979,-207.6"/>
</g>
<!-- Meaning57294628&#45;&gt;Definition1690370357 -->
<g id="edge18" class="edge">
<title>Meaning57294628&#45;&gt;Definition1690370357</title>
<path fill="none" stroke="black" d="M1078,-531.01C1078,-483.71 1078,-399.86 1078,-339.87"/>
<polygon fill="black" stroke="black" points="1081.5,-339.71 1078,-329.71 1074.5,-339.71 1081.5,-339.71"/>
<text text-anchor="middle" x="1107.94" y="-392.6" font-family="Times New Roman,serif" font-size="14.00">definitions</text>
<text text-anchor="middle" x="1107.94" y="-375.8" font-family="Times New Roman,serif" font-size="14.00">[0..*]</text>
</g>
<!-- Dictionary2063089 -->
<g id="node4" class="node">
<title>Dictionary2063089</title>
<polygon fill="#ffffff" stroke="transparent" points="1721,-353.6 1395,-353.6 1395,-183.6 1721,-183.6 1721,-353.6"/>
<text text-anchor="start" x="1400" y="-336" font-family="Times New Roman,serif" font-size="14.00">(C)Dictionary</text>
<text text-anchor="start" x="1400" y="-312" font-family="Times New Roman,serif" font-size="14.00">&#45; &#160;&#160;words: ArrayList&lt;Word&gt; [0..*]</text>
<text text-anchor="start" x="1400" y="-288" font-family="Times New Roman,serif" font-size="14.00">+ addWord(word: Word)</text>
<text text-anchor="start" x="1400" y="-264" font-family="Times New Roman,serif" font-size="14.00">+ removeWord(word: Word)</text>
<text text-anchor="start" x="1400" y="-240" font-family="Times New Roman,serif" font-size="14.00">+ sortWords()</text>
<text text-anchor="start" x="1399.51" y="-216" font-family="Times New Roman,serif" font-size="14.00">+ updateWordExplain(word: Word, newExplain: String)</text>
<text text-anchor="start" x="1400" y="-192" font-family="Times New Roman,serif" font-size="14.00">+ updateWordTarget(word: Word, newTarget: String)</text>
<polygon fill="black" stroke="black" points="1395,-328.6 1395,-328.6 1721,-328.6 1721,-328.6 1395,-328.6"/>
<polygon fill="black" stroke="black" points="1395,-304.6 1395,-304.6 1721,-304.6 1721,-304.6 1395,-304.6"/>
<polygon fill="none" stroke="black" points="1395,-183.6 1395,-353.6 1721,-353.6 1721,-183.6 1395,-183.6"/>
</g>
<!-- Word2063089 -->
<g id="node7" class="node">
<title>Word2063089</title>
<polygon fill="#ffffff" stroke="transparent" points="1859.5,-114 1682.5,-114 1682.5,-16 1859.5,-16 1859.5,-114"/>
<text text-anchor="start" x="1688" y="-96.4" font-family="Times New Roman,serif" font-size="14.00">(C)Word</text>
<text text-anchor="start" x="1688" y="-72.4" font-family="Times New Roman,serif" font-size="14.00">&#45; &#160;&#160;phonetics: String [0..1]</text>
<text text-anchor="start" x="1687.71" y="-48.4" font-family="Times New Roman,serif" font-size="14.00">&#45; &#160;&#160;word_explain: String [0..1]</text>
<text text-anchor="start" x="1688" y="-24.4" font-family="Times New Roman,serif" font-size="14.00">&#45; &#160;&#160;word_target: String [0..1]</text>
<polygon fill="black" stroke="black" points="1683,-89 1683,-89 1860,-89 1860,-89 1683,-89"/>
<polygon fill="none" stroke="black" points="1682.5,-16 1682.5,-114 1859.5,-114 1859.5,-16 1682.5,-16"/>
</g>
<!-- Dictionary2063089&#45;&gt;Word2063089 -->
<g id="edge2" class="edge">
<title>Dictionary2063089&#45;&gt;Word2063089</title>
<path fill="none" stroke="black" d="M1646.79,-183.56C1669.05,-162.49 1692.38,-140.41 1712.73,-121.15"/>
<polygon fill="black" stroke="black" points="1715.23,-123.61 1720.08,-114.19 1710.42,-118.52 1715.23,-123.61"/>
<text text-anchor="middle" x="1713.11" y="-153" font-family="Times New Roman,serif" font-size="14.00">words</text>
<text text-anchor="middle" x="1713.11" y="-136.2" font-family="Times New Roman,serif" font-size="14.00">[0..*]</text>
</g>
<!-- DictionaryAPI2063089 -->
<g id="node5" class="node">
<title>DictionaryAPI2063089</title>
<polygon fill="#ffffff" stroke="transparent" points="1860,-617.2 1632,-617.2 1632,-519.2 1860,-519.2 1860,-617.2"/>
<text text-anchor="start" x="1637" y="-599.6" font-family="Times New Roman,serif" font-size="14.00">(C)DictionaryAPI</text>
<text text-anchor="start" x="1637" y="-575.6" font-family="Times New Roman,serif" font-size="14.00">&#45; &#160;&#160;client: HttpClient [0..1]</text>
<text text-anchor="start" x="1636.5" y="-551.6" font-family="Times New Roman,serif" font-size="14.00">+ getWordDetails(word: String): Word</text>
<text text-anchor="start" x="1637" y="-527.6" font-family="Times New Roman,serif" font-size="14.00">&#45; parse(responseBody: String): Word</text>
<polygon fill="black" stroke="black" points="1632,-592.2 1632,-592.2 1860,-592.2 1860,-592.2 1632,-592.2"/>
<polygon fill="black" stroke="black" points="1632,-568.2 1632,-568.2 1860,-568.2 1860,-568.2 1632,-568.2"/>
<polygon fill="none" stroke="black" points="1632,-519.2 1632,-617.2 1860,-617.2 1860,-519.2 1632,-519.2"/>
</g>
<!-- DictionaryManagement2063089&#45;&gt;Dictionary2063089 -->
<g id="edge17" class="edge">
<title>DictionaryManagement2063089&#45;&gt;Dictionary2063089</title>
<path fill="none" stroke="black" d="M1485.74,-423.19C1495.34,-402.79 1504.99,-382.27 1513.98,-363.17"/>
<polygon fill="black" stroke="black" points="1517.25,-364.45 1518.34,-353.91 1510.91,-361.47 1517.25,-364.45"/>
<text text-anchor="middle" x="1536.38" y="-392.6" font-family="Times New Roman,serif" font-size="14.00">dictionary</text>
<text text-anchor="middle" x="1536.38" y="-375.8" font-family="Times New Roman,serif" font-size="14.00">[0..1]</text>
</g>
<!-- DataStore66049 -->
<g id="node8" class="node">
<title>DataStore66049</title>
<polygon fill="#ffffff" stroke="transparent" points="417.5,-1850 16.5,-1850 16.5,-1488 417.5,-1488 417.5,-1850"/>
<text text-anchor="start" x="22" y="-1832.4" font-family="Times New Roman,serif" font-size="14.00">(C)DataStore</text>
<text text-anchor="start" x="22" y="-1808.4" font-family="Times New Roman,serif" font-size="14.00">+ &#160;&#160;answer: String [0..1]</text>
<text text-anchor="start" x="22" y="-1784.4" font-family="Times New Roman,serif" font-size="14.00">+ &#160;&#160;currentColumn: int [1]</text>
<text text-anchor="start" x="22" y="-1760.4" font-family="Times New Roman,serif" font-size="14.00">+ &#160;&#160;currentRow: int [1]</text>
<text text-anchor="start" x="22" y="-1736.4" font-family="Times New Roman,serif" font-size="14.00">+ &#160;&#160;numberOfMultipleChoiceDone: int [1]</text>
<text text-anchor="start" x="22" y="-1712.4" font-family="Times New Roman,serif" font-size="14.00">+ &#160;&#160;numberOfWordleDone: int [1]</text>
<text text-anchor="start" x="22" y="-1688.4" font-family="Times New Roman,serif" font-size="14.00">+ &#160;&#160;state: int [1]</text>
<text text-anchor="start" x="22" y="-1664.4" font-family="Times New Roman,serif" font-size="14.00">+ &#160;&#160;wordInfo: WordInfo [0..1]</text>
<text text-anchor="start" x="22" y="-1640.4" font-family="Times New Roman,serif" font-size="14.00">+ &#160;&#160;words: List&lt;String&gt; [0..*]</text>
<text text-anchor="start" x="22" y="-1616.4" font-family="Times New Roman,serif" font-size="14.00">+ Init()</text>
<text text-anchor="start" x="22" y="-1592.4" font-family="Times New Roman,serif" font-size="14.00">+ findWord(word: String): boolean</text>
<text text-anchor="start" x="22" y="-1568.4" font-family="Times New Roman,serif" font-size="14.00">+ getRandomWord(length: int): String</text>
<text text-anchor="start" x="22" y="-1544.4" font-family="Times New Roman,serif" font-size="14.00">+ getWordInfo(word: String): WordInfo</text>
<text text-anchor="start" x="22" y="-1520.4" font-family="Times New Roman,serif" font-size="14.00">+ getWordInfo(wordLength: int): WordInfo</text>
<text text-anchor="start" x="21.57" y="-1496.4" font-family="Times New Roman,serif" font-size="14.00"># shutdownAndAwaitTermination(executorService: ExecutorService)</text>
<polygon fill="black" stroke="black" points="17,-1825 17,-1825 418,-1825 418,-1825 17,-1825"/>
<polygon fill="black" stroke="black" points="17,-1633 17,-1633 418,-1633 418,-1633 17,-1633"/>
<polygon fill="none" stroke="black" points="16.5,-1488 16.5,-1850 417.5,-1850 417.5,-1488 16.5,-1488"/>
</g>
<!-- DataStore66049&#45;&gt;WordInfo1465777034 -->
<g id="edge1" class="edge">
<title>DataStore66049&#45;&gt;WordInfo1465777034</title>
<path fill="none" stroke="black" d="M275.36,-1487.93C337.5,-1296.17 427,-1020 427,-1020 427,-1020 743,-1002 743,-1002 743,-1002 845.91,-968.4 845.91,-968.4 845.91,-968.4 946,-960.4 946,-960.4 946,-960.4 961.12,-948.81 980.67,-933.81"/>
<polygon fill="black" stroke="black" points="982.86,-936.55 988.66,-927.68 978.6,-930.99 982.86,-936.55"/>
<text text-anchor="middle" x="872.04" y="-989.4" font-family="Times New Roman,serif" font-size="14.00">wordInfo</text>
<text text-anchor="middle" x="872.04" y="-972.6" font-family="Times New Roman,serif" font-size="14.00">[0..1]</text>
</g>
<!-- DictionaryApplication66049 -->
<g id="node9" class="node">
<title>DictionaryApplication66049</title>
<polygon fill="#ffffff" stroke="transparent" points="676,-2492.8 508,-2492.8 508,-2370.8 676,-2370.8 676,-2492.8"/>
<text text-anchor="start" x="513" y="-2475.2" font-family="Times New Roman,serif" font-size="14.00">(C)DictionaryApplication</text>
<text text-anchor="start" x="513" y="-2451.2" font-family="Times New Roman,serif" font-size="14.00">&#45; &#160;&#160;answer: String [0..1]</text>
<text text-anchor="start" x="513" y="-2427.2" font-family="Times New Roman,serif" font-size="14.00">+ main(args: String[])</text>
<text text-anchor="start" x="513" y="-2403.2" font-family="Times New Roman,serif" font-size="14.00">+ runApplication()</text>
<text text-anchor="start" x="512.64" y="-2379.2" font-family="Times New Roman,serif" font-size="14.00">+ start(primaryStage: Stage)</text>
<polygon fill="black" stroke="black" points="508,-2467.8 508,-2467.8 676,-2467.8 676,-2467.8 508,-2467.8"/>
<polygon fill="black" stroke="black" points="508,-2443.8 508,-2443.8 676,-2443.8 676,-2443.8 508,-2443.8"/>
<polygon fill="none" stroke="black" points="508,-2370.8 508,-2492.8 676,-2492.8 676,-2370.8 508,-2370.8"/>
</g>
<!-- DictionaryApplication66049&#45;&gt;DataStore66049 -->
<g id="edge3" class="edge">
<title>DictionaryApplication66049&#45;&gt;DataStore66049</title>
<path fill="none" stroke="black" d="M507.57,-2373.08C466.97,-2345.33 427,-2318 427,-2318 427,-2318 340.45,-2050.92 278.47,-1859.69"/>
<polygon fill="black" stroke="black" points="281.77,-1858.51 275.36,-1850.07 275.11,-1860.67 281.77,-1858.51"/>
<text text-anchor="middle" x="516.87" y="-2340.2" font-family="Times New Roman,serif" font-size="14.00">start() &#45;&gt; Init()</text>
</g>
<!-- DictionaryController66049 -->
<g id="node10" class="node">
<title>DictionaryController66049</title>
<polygon fill="#ffffff" stroke="transparent" points="748,-2318 436,-2318 436,-1020 748,-1020 748,-2318"/>
<text text-anchor="start" x="441" y="-2300.4" font-family="Times New Roman,serif" font-size="14.00">(C)DictionaryController</text>
<text text-anchor="start" x="441" y="-2276.4" font-family="Times New Roman,serif" font-size="14.00">&#45; &#160;&#160;WordList: ObservableList&lt;Word&gt; [0..*]</text>
<text text-anchor="start" x="441" y="-2252.4" font-family="Times New Roman,serif" font-size="14.00">&#45; &#160;&#160;dictionaryAPI: DictionaryAPI [0..1]</text>
<text text-anchor="start" x="441" y="-2228.4" font-family="Times New Roman,serif" font-size="14.00">&#45; &#160;&#160;label: Label [0..1]</text>
<text text-anchor="start" x="441" y="-2204.4" font-family="Times New Roman,serif" font-size="14.00">&#45; &#160;&#160;mainLabel: Label [0..1]</text>
<text text-anchor="start" x="441" y="-2180.4" font-family="Times New Roman,serif" font-size="14.00">&#45; &#160;&#160;mean: TableColumn&lt;Word, String&gt; [0..1]</text>
<text text-anchor="start" x="441" y="-2156.4" font-family="Times New Roman,serif" font-size="14.00">&#45; &#160;&#160;meaning: Label [0..1]</text>
<text text-anchor="start" x="441" y="-2132.4" font-family="Times New Roman,serif" font-size="14.00">&#45; &#160;&#160;messageLabel: Label [0..1]</text>
<text text-anchor="start" x="441" y="-2108.4" font-family="Times New Roman,serif" font-size="14.00">&#45; &#160;&#160;multipleChoiceGrid: GridPane [0..1]</text>
<text text-anchor="start" x="441" y="-2084.4" font-family="Times New Roman,serif" font-size="14.00">&#45; &#160;&#160;note: TextArea [0..1]</text>
<text text-anchor="start" x="441" y="-2060.4" font-family="Times New Roman,serif" font-size="14.00">&#45; &#160;&#160;numRow: int [1]</text>
<text text-anchor="start" x="441" y="-2036.4" font-family="Times New Roman,serif" font-size="14.00">&#45; &#160;&#160;phonetics: Label [0..1]</text>
<text text-anchor="start" x="441" y="-2012.4" font-family="Times New Roman,serif" font-size="14.00">&#45; &#160;&#160;priority: TableColumn&lt;Task, Integer&gt; [0..1]</text>
<text text-anchor="start" x="441" y="-1988.4" font-family="Times New Roman,serif" font-size="14.00">&#45; &#160;&#160;questionLabel: Label [0..1]</text>
<text text-anchor="start" x="441" y="-1964.4" font-family="Times New Roman,serif" font-size="14.00">&#45; &#160;&#160;root: Parent [0..1]</text>
<text text-anchor="start" x="441" y="-1940.4" font-family="Times New Roman,serif" font-size="14.00">&#45; &#160;&#160;savenote: Button [0..1]</text>
<text text-anchor="start" x="441" y="-1916.4" font-family="Times New Roman,serif" font-size="14.00">&#45; &#160;&#160;saveword: Button [0..1]</text>
<text text-anchor="start" x="441" y="-1892.4" font-family="Times New Roman,serif" font-size="14.00">&#45; &#160;&#160;scene: Scene [0..1]</text>
<text text-anchor="start" x="441" y="-1868.4" font-family="Times New Roman,serif" font-size="14.00">&#45; &#160;&#160;searchbar: TextField [0..1]</text>
<text text-anchor="start" x="441" y="-1844.4" font-family="Times New Roman,serif" font-size="14.00">&#45; &#160;&#160;searchbutton: Button [0..1]</text>
<text text-anchor="start" x="441" y="-1820.4" font-family="Times New Roman,serif" font-size="14.00">&#45; &#160;&#160;stage: Stage [0..1]</text>
<text text-anchor="start" x="441" y="-1796.4" font-family="Times New Roman,serif" font-size="14.00">&#45; &#160;&#160;submitBtn: Button [0..1]</text>
<text text-anchor="start" x="441" y="-1772.4" font-family="Times New Roman,serif" font-size="14.00">&#45; &#160;&#160;tab: TabPane [0..1]</text>
<text text-anchor="start" x="441" y="-1748.4" font-family="Times New Roman,serif" font-size="14.00">&#45; &#160;&#160;taskList: ObservableList&lt;Task&gt; [0..*]</text>
<text text-anchor="start" x="441" y="-1724.4" font-family="Times New Roman,serif" font-size="14.00">&#45; &#160;&#160;taskName: TableColumn&lt;Task, String&gt; [0..1]</text>
<text text-anchor="start" x="441" y="-1700.4" font-family="Times New Roman,serif" font-size="14.00">&#45; &#160;&#160;taskProgress: TableColumn&lt;Task, String&gt; [0..1]</text>
<text text-anchor="start" x="441" y="-1676.4" font-family="Times New Roman,serif" font-size="14.00">+ &#160;&#160;text: Text [0..1]</text>
<text text-anchor="start" x="441" y="-1652.4" font-family="Times New Roman,serif" font-size="14.00">&#45; &#160;&#160;todolist: TableView&lt;Task&gt; [0..1]</text>
<text text-anchor="start" x="441" y="-1628.4" font-family="Times New Roman,serif" font-size="14.00">&#45; &#160;&#160;word: Label [0..1]</text>
<text text-anchor="start" x="441" y="-1604.4" font-family="Times New Roman,serif" font-size="14.00">&#45; &#160;&#160;wordLength: int [1]</text>
<text text-anchor="start" x="441" y="-1580.4" font-family="Times New Roman,serif" font-size="14.00">&#45; &#160;&#160;word_tg: TableColumn&lt;Word, String&gt; [0..1]</text>
<text text-anchor="start" x="441" y="-1556.4" font-family="Times New Roman,serif" font-size="14.00">&#45; &#160;&#160;wordleGrid: GridPane [0..1]</text>
<text text-anchor="start" x="441" y="-1532.4" font-family="Times New Roman,serif" font-size="14.00">&#45; &#160;&#160;wordlist: TableView&lt;Word&gt; [0..1]</text>
<text text-anchor="start" x="441" y="-1508.4" font-family="Times New Roman,serif" font-size="14.00">&#45; addAnswer(answer: String)</text>
<text text-anchor="start" x="441" y="-1484.4" font-family="Times New Roman,serif" font-size="14.00">+ addTask()</text>
<text text-anchor="start" x="441" y="-1460.4" font-family="Times New Roman,serif" font-size="14.00">+ handleKeyboardInput(event: KeyEvent)</text>
<text text-anchor="start" x="441" y="-1436.4" font-family="Times New Roman,serif" font-size="14.00">+ initialize()</text>
<text text-anchor="start" x="441" y="-1412.4" font-family="Times New Roman,serif" font-size="14.00">&#45; insertTaskToMySQL(task: Task)</text>
<text text-anchor="start" x="441" y="-1388.4" font-family="Times New Roman,serif" font-size="14.00">+ loadNotesFromFile()</text>
<text text-anchor="start" x="441" y="-1364.4" font-family="Times New Roman,serif" font-size="14.00">&#45; loadTasksFromMySQL()</text>
<text text-anchor="start" x="441" y="-1340.4" font-family="Times New Roman,serif" font-size="14.00">&#45; loadWordsFromMySQL()</text>
<text text-anchor="start" x="441" y="-1316.4" font-family="Times New Roman,serif" font-size="14.00">+ playAudio(event: ActionEvent)</text>
<text text-anchor="start" x="441" y="-1292.4" font-family="Times New Roman,serif" font-size="14.00">+ resetScene(event: ActionEvent)</text>
<text text-anchor="start" x="441" y="-1268.4" font-family="Times New Roman,serif" font-size="14.00">+ returnToMenu(event: ActionEvent)</text>
<text text-anchor="start" x="441" y="-1244.4" font-family="Times New Roman,serif" font-size="14.00">+ saveNote()</text>
<text text-anchor="start" x="441" y="-1220.4" font-family="Times New Roman,serif" font-size="14.00">&#45; saveWord()</text>
<text text-anchor="start" x="441" y="-1196.4" font-family="Times New Roman,serif" font-size="14.00">&#45; searchWord()</text>
<text text-anchor="start" x="441" y="-1172.4" font-family="Times New Roman,serif" font-size="14.00">+ submitAnswer(event: ActionEvent)</text>
<text text-anchor="start" x="440.7" y="-1148.4" font-family="Times New Roman,serif" font-size="14.00">+ switchToGameMultipleChoice(event: ActionEvent)</text>
<text text-anchor="start" x="441" y="-1124.4" font-family="Times New Roman,serif" font-size="14.00">+ switchToGameWordle(event: ActionEvent)</text>
<text text-anchor="start" x="441" y="-1100.4" font-family="Times New Roman,serif" font-size="14.00">+ switchtoNotes(event: ActionEvent)</text>
<text text-anchor="start" x="441" y="-1076.4" font-family="Times New Roman,serif" font-size="14.00">+ switchtoTasklist(event: ActionEvent)</text>
<text text-anchor="start" x="441" y="-1052.4" font-family="Times New Roman,serif" font-size="14.00">&#45; updateTasktoMySQL(task: Task)</text>
<text text-anchor="start" x="441" y="-1028.4" font-family="Times New Roman,serif" font-size="14.00">&#45; updateWordtoMySQL(word: Word)</text>
<polygon fill="black" stroke="black" points="436,-2293 436,-2293 748,-2293 748,-2293 436,-2293"/>
<polygon fill="black" stroke="black" points="436,-1525 436,-1525 748,-1525 748,-1525 436,-1525"/>
<polygon fill="none" stroke="black" points="436,-1020 436,-2318 748,-2318 748,-1020 436,-1020"/>
</g>
<!-- DictionaryApplication66049&#45;&gt;DictionaryController66049 -->
<g id="edge4" class="edge">
<title>DictionaryApplication66049&#45;&gt;DictionaryController66049</title>
<path fill="none" stroke="black" d="M592,-2370.78C592,-2358.26 592,-2344.08 592,-2328.54"/>
<polygon fill="black" stroke="black" points="595.5,-2328.13 592,-2318.13 588.5,-2328.13 595.5,-2328.13"/>
<text text-anchor="middle" x="684.18" y="-2340.2" font-family="Times New Roman,serif" font-size="14.00">start() &#45;&gt; handleKeyboardInput()</text>
</g>
<!-- MultipleChoices66049 -->
<g id="node11" class="node">
<title>MultipleChoices66049</title>
<polygon fill="#ffffff" stroke="transparent" points="934,-1694 766,-1694 766,-1644 934,-1644 934,-1694"/>
<text text-anchor="start" x="771" y="-1676.4" font-family="Times New Roman,serif" font-size="14.00">(C)MultipleChoices</text>
<text text-anchor="start" x="770.64" y="-1652.4" font-family="Times New Roman,serif" font-size="14.00">+ start(primaryStage: Stage)</text>
<polygon fill="black" stroke="black" points="766,-1669 766,-1669 934,-1669 934,-1669 766,-1669"/>
<polygon fill="none" stroke="black" points="766,-1644 766,-1694 934,-1694 934,-1644 766,-1644"/>
</g>
<!-- DictionaryApplication66049&#45;&gt;MultipleChoices66049 -->
<g id="edge5" class="edge">
<title>DictionaryApplication66049&#45;&gt;MultipleChoices66049</title>
<path fill="none" stroke="black" d="M685.52,-2392C732.68,-2372.43 780,-2352.8 780,-2352.8 780,-2352.8 835.04,-1815.93 847.51,-1694.3"/>
<polygon fill="none" stroke="black" points="684,-2388.84 676.1,-2395.91 686.68,-2395.31 684,-2388.84"/>
</g>
<!-- DictionaryController66049&#45;&gt;WordInfo1465777034 -->
<g id="edge16" class="edge">
<title>DictionaryController66049&#45;&gt;WordInfo1465777034</title>
<path fill="none" stroke="black" d="M748.01,-1055.3C753.69,-1032.99 757,-1020 757,-1020 757,-1020 902,-1002 902,-1002 902,-1002 943.71,-968.03 985.18,-934.24"/>
<polygon fill="black" stroke="black" points="987.64,-936.75 993.19,-927.72 983.22,-931.33 987.64,-936.75"/>
<text text-anchor="middle" x="1020.2" y="-981" font-family="Times New Roman,serif" font-size="14.00">playAudio() &#45;&gt; playAudio()</text>
</g>
<!-- DictionaryController66049&#45;&gt;DictionaryAPI2063089 -->
<g id="edge6" class="edge">
<title>DictionaryController66049&#45;&gt;DictionaryAPI2063089</title>
<path fill="none" stroke="black" d="M748.01,-1055.3C753.69,-1032.99 757,-1020 757,-1020 757,-1020 1102,-1002 1102,-1002 1102,-1002 1210,-960.4 1210,-960.4 1210,-960.4 1623,-746 1623,-746 1623,-746 1670.53,-677.68 1706.5,-625.98"/>
<polygon fill="black" stroke="black" points="1709.55,-627.72 1712.39,-617.51 1703.81,-623.72 1709.55,-627.72"/>
<text text-anchor="middle" x="1542.66" y="-870.8" font-family="Times New Roman,serif" font-size="14.00">dictionaryAPI</text>
<text text-anchor="middle" x="1542.66" y="-854" font-family="Times New Roman,serif" font-size="14.00">[0..1]</text>
</g>
<!-- DictionaryController66049&#45;&gt;Word2063089 -->
<g id="edge12" class="edge">
<title>DictionaryController66049&#45;&gt;Word2063089</title>
<path fill="none" stroke="black" d="M748.01,-1055.3C753.69,-1032.99 757,-1020 757,-1020 757,-1020 1160,-1002 1160,-1002 1160,-1002 1586,-960.4 1586,-960.4 1586,-960.4 1896,-867.6 1896,-867.6 1896,-867.6 1896,-867.6 1896,-267.6 1896,-267.6 1843.09,-182.26 1806.11,-122.63"/>
<polygon fill="black" stroke="black" points="1809.03,-120.69 1800.78,-114.03 1803.08,-124.38 1809.03,-120.69"/>
<text text-anchor="middle" x="1922.83" y="-572.4" font-family="Times New Roman,serif" font-size="14.00">WordList</text>
<text text-anchor="middle" x="1922.83" y="-555.6" font-family="Times New Roman,serif" font-size="14.00">[0..*]</text>
</g>
<!-- DictionaryController66049&#45;&gt;Word2063089 -->
<g id="edge13" class="edge">
<title>DictionaryController66049&#45;&gt;Word2063089</title>
<path fill="none" stroke="black" d="M748.01,-1055.3C753.69,-1032.99 757,-1020 757,-1020 757,-1020 1340,-1002 1340,-1002 1340,-1002 1755,-960.4 1755,-960.4 1755,-960.4 1986,-867.6 1986,-867.6 1986,-867.6 1986,-867.6 1986,-267.6 1986,-267.6 1910,-183.6 1910,-183.6 1910,-183.6 1871.93,-151.39 1835.64,-120.69"/>
<polygon fill="black" stroke="black" points="1837.83,-117.96 1827.94,-114.17 1833.31,-123.3 1837.83,-117.96"/>
<text text-anchor="middle" x="2001.16" y="-572.4" font-family="Times New Roman,serif" font-size="14.00">mean</text>
<text text-anchor="middle" x="2001.16" y="-555.6" font-family="Times New Roman,serif" font-size="14.00">[0..1]</text>
</g>
<!-- DictionaryController66049&#45;&gt;Word2063089 -->
<g id="edge14" class="edge">
<title>DictionaryController66049&#45;&gt;Word2063089</title>
<path fill="none" stroke="black" d="M748.01,-1055.3C753.69,-1032.99 757,-1020 757,-1020 757,-1020 1516,-1002 1516,-1002 1516,-1002 1884,-960.4 1884,-960.4 1884,-960.4 2052,-867.6 2052,-867.6 2052,-867.6 2052,-867.6 2052,-267.6 2052,-267.6 2000,-183.6 2000,-183.6 2000,-183.6 1930.94,-148.13 1868.67,-116.16"/>
<polygon fill="black" stroke="black" points="1870.03,-112.92 1859.54,-111.47 1866.83,-119.15 1870.03,-112.92"/>
<text text-anchor="middle" x="2075.33" y="-572.4" font-family="Times New Roman,serif" font-size="14.00">word_tg</text>
<text text-anchor="middle" x="2075.33" y="-555.6" font-family="Times New Roman,serif" font-size="14.00">[0..1]</text>
</g>
<!-- DictionaryController66049&#45;&gt;Word2063089 -->
<g id="edge15" class="edge">
<title>DictionaryController66049&#45;&gt;Word2063089</title>
<path fill="none" stroke="black" d="M748.01,-1055.3C753.69,-1032.99 757,-1020 757,-1020 757,-1020 1674,-1002 1674,-1002 1674,-1002 1982,-960.4 1982,-960.4 1982,-960.4 2135,-867.6 2135,-867.6 2135,-867.6 2135,-867.6 2135,-267.6 2135,-267.6 2066,-183.6 2066,-183.6 2066,-183.6 1947,-132 1947,-132 1947,-132 1909.42,-117.91 1869,-102.75"/>
<polygon fill="black" stroke="black" points="1870.11,-99.43 1859.52,-99.19 1867.65,-105.98 1870.11,-99.43"/>
<text text-anchor="middle" x="2157.94" y="-572.4" font-family="Times New Roman,serif" font-size="14.00">wordlist</text>
<text text-anchor="middle" x="2157.94" y="-555.6" font-family="Times New Roman,serif" font-size="14.00">[0..1]</text>
</g>
<!-- Task66049 -->
<g id="node12" class="node">
<title>Task66049</title>
<polygon fill="#ffffff" stroke="transparent" points="677.5,-915.6 506.5,-915.6 506.5,-817.6 677.5,-817.6 677.5,-915.6"/>
<text text-anchor="start" x="512" y="-898" font-family="Times New Roman,serif" font-size="14.00">(C)Task</text>
<text text-anchor="start" x="512" y="-874" font-family="Times New Roman,serif" font-size="14.00">&#45; &#160;&#160;priority: int [1]</text>
<text text-anchor="start" x="512" y="-850" font-family="Times New Roman,serif" font-size="14.00">&#45; &#160;&#160;taskName: String [0..1]</text>
<text text-anchor="start" x="511.82" y="-826" font-family="Times New Roman,serif" font-size="14.00">&#45; &#160;&#160;taskProgress: String [0..1]</text>
<polygon fill="black" stroke="black" points="507,-890.6 507,-890.6 678,-890.6 678,-890.6 507,-890.6"/>
<polygon fill="none" stroke="black" points="506.5,-817.6 506.5,-915.6 677.5,-915.6 677.5,-817.6 506.5,-817.6"/>
</g>
<!-- DictionaryController66049&#45;&gt;Task66049 -->
<g id="edge7" class="edge">
<title>DictionaryController66049&#45;&gt;Task66049</title>
<path fill="none" stroke="black" d="M592,-1019.56C592,-983.06 592,-951.11 592,-926.05"/>
<polygon fill="black" stroke="black" points="595.5,-925.74 592,-915.74 588.5,-925.74 595.5,-925.74"/>
<text text-anchor="middle" x="613" y="-989.4" font-family="Times New Roman,serif" font-size="14.00">priority</text>
<text text-anchor="middle" x="613" y="-972.6" font-family="Times New Roman,serif" font-size="14.00">[0..1]</text>
</g>
<!-- DictionaryController66049&#45;&gt;Task66049 -->
<g id="edge8" class="edge">
<title>DictionaryController66049&#45;&gt;Task66049</title>
<path fill="none" stroke="black" d="M633.85,-1019.81C634.59,-1008.35 635,-1002 635,-1002 635,-1002 635,-968.4 635,-968.4 635,-968.4 626.17,-947.7 616.51,-925.06"/>
<polygon fill="black" stroke="black" points="619.64,-923.46 612.49,-915.64 613.2,-926.21 619.64,-923.46"/>
<text text-anchor="middle" x="657.16" y="-989.4" font-family="Times New Roman,serif" font-size="14.00">taskList</text>
<text text-anchor="middle" x="657.16" y="-972.6" font-family="Times New Roman,serif" font-size="14.00">[0..*]</text>
</g>
<!-- DictionaryController66049&#45;&gt;Task66049 -->
<g id="edge9" class="edge">
<title>DictionaryController66049&#45;&gt;Task66049</title>
<path fill="none" stroke="black" d="M680.57,-1019.81C682.13,-1008.35 683,-1002 683,-1002 683,-1002 683,-968.4 683,-968.4 683,-968.4 663.3,-946.58 642.23,-923.24"/>
<polygon fill="black" stroke="black" points="644.67,-920.72 635.37,-915.64 639.47,-925.41 644.67,-920.72"/>
<text text-anchor="middle" x="710.99" y="-989.4" font-family="Times New Roman,serif" font-size="14.00">taskName</text>
<text text-anchor="middle" x="710.99" y="-972.6" font-family="Times New Roman,serif" font-size="14.00">[0..1]</text>
</g>
<!-- DictionaryController66049&#45;&gt;Task66049 -->
<g id="edge10" class="edge">
<title>DictionaryController66049&#45;&gt;Task66049</title>
<path fill="none" stroke="black" d="M438.46,-1019.81C435.75,-1008.35 434.24,-1002 434.24,-1002 434.24,-1002 434.24,-968.4 434.24,-968.4 434.24,-968.4 470.49,-945.24 508.24,-921.12"/>
<polygon fill="black" stroke="black" points="510.28,-923.97 516.82,-915.64 506.51,-918.07 510.28,-923.97"/>
<text text-anchor="middle" x="470.38" y="-989.4" font-family="Times New Roman,serif" font-size="14.00">taskProgress</text>
<text text-anchor="middle" x="470.38" y="-972.6" font-family="Times New Roman,serif" font-size="14.00">[0..1]</text>
</g>
<!-- DictionaryController66049&#45;&gt;Task66049 -->
<g id="edge11" class="edge">
<title>DictionaryController66049&#45;&gt;Task66049</title>
<path fill="none" stroke="black" d="M547.22,-1019.81C546.43,-1008.35 545.99,-1002 545.99,-1002 545.99,-1002 545.99,-968.4 545.99,-968.4 545.99,-968.4 555.53,-947.51 565.91,-924.76"/>
<polygon fill="black" stroke="black" points="569.11,-926.19 570.07,-915.64 562.74,-923.28 569.11,-926.19"/>
<text text-anchor="middle" x="567" y="-989.4" font-family="Times New Roman,serif" font-size="14.00">todolist</text>
<text text-anchor="middle" x="567" y="-972.6" font-family="Times New Roman,serif" font-size="14.00">[0..1]</text>
</g>
</g>
</svg>
